<svg width="42" height="42" viewBox="0 0 42 42" fill="none" xmlns="http://www.w3.org/2000/svg">
<path d="M41 21C41 32.0457 32.0457 41 21 41C9.95431 41 1 32.0457 1 21C1 9.95431 9.95431 1 21 1C32.0457 1 41 9.95431 41 21Z" stroke="white" stroke-width="2"/>
<path d="M10.2929 20.2929C9.90237 20.6834 9.90237 21.3166 10.2929 21.7071L16.6569 28.0711C17.0474 28.4616 17.6805 28.4616 18.0711 28.0711C18.4616 27.6805 18.4616 27.0474 18.0711 26.6569L12.4142 21L18.0711 15.3431C18.4616 14.9526 18.4616 14.3195 18.0711 13.9289C17.6805 13.5384 17.0474 13.5384 16.6569 13.9289L10.2929 20.2929ZM34 20L11 20V22L34 22V20Z" fill="white"/>
</svg>
